<?xml version="1.0" encoding="UTF-8"?>
<!DOCTYPE svg PUBLIC "-//W3C//DTD SVG 1.1//EN" "http://www.w3.org/Graphics/SVG/1.1/DTD/svg11.dtd">
<!-- Creator: CorelDRAW X7 -->
<svg xmlns="http://www.w3.org/2000/svg" xml:space="preserve" width="153.88mm" height="156.23mm" version="1.1" style="shape-rendering:geometricPrecision; text-rendering:geometricPrecision; image-rendering:optimizeQuality; fill-rule:evenodd; clip-rule:evenodd"
viewBox="0 0 3683 3739"
 xmlns:xlink="http://www.w3.org/1999/xlink">
 <defs>
  <style type="text/css">
   <![CDATA[
    .fil3 {fill:#FEFEFE}
    .fil2 {fill:#1D1819}
    .fil0 {fill:#1D1819}
    .fil1 {fill:#FBB03B}
    .fnt0 {font-weight:bold;font-size:323.914px;font-family:'Montserrat'}
   ]]>
  </style>
 </defs>
 <g id="Layer_x0020_1">
  <metadata id="CorelCorpID_0Corel-Layer"/>
  <circle class="fil0" cx="319" cy="3420" r="319"/>
  <path class="fil1" d="M238 2589l106 -580c482,256 847,580 1151,1067l1074 20 121 547 -1540 0c-162,-527 -476,-892 -912,-1054z"/>
  <path class="fil2" d="M709 0l-275 1510c655,208 1223,775 1466,1323 196,0 392,0 588,0 -345,-710 -791,-1257 -1460,-1642l95 -468c939,549 1709,1299 2031,2920 176,0 353,0 529,0 -506,-2290 -1459,-3019 -2974,-3643z"/>
  <text x="1438" y="3613"  class="fil3 fnt0">NET.ID</text>
 </g>
</svg>
